<?xml version="1.0" encoding="UTF-8" standalone="no"?><!DOCTYPE svg PUBLIC "-//W3C//DTD SVG 1.1//EN" "http://www.w3.org/Graphics/SVG/1.1/DTD/svg11.dtd"><svg width="100%" height="100%" viewBox="0 0 4267 1667" version="1.1" xmlns="http://www.w3.org/2000/svg" xmlns:xlink="http://www.w3.org/1999/xlink" xml:space="preserve" xmlns:serif="http://www.serif.com/" style="fill-rule:evenodd;clip-rule:evenodd;stroke-linejoin:round;stroke-miterlimit:2;"><g id="logo-group"><g id="logo-center"><g id="title"><g id="path248327"><path d="M591.826,1370.39c-69.366,-29.337 -131.701,-71.424 -185.225,-124.948c-53.534,-53.524 -95.472,-115.859 -124.949,-185.235c-30.362,-71.853 -45.906,-148.27 -45.906,-226.875c0,-78.605 15.395,-155.012 45.906,-226.874c29.328,-69.376 71.415,-131.701 124.949,-185.235c53.524,-53.524 115.859,-95.472 185.225,-124.949c71.872,-30.501 148.27,-45.906 226.874,-45.906c194.763,0 375.88,96.655 484.559,258.708l-191.242,128.181c-65.696,-98.117 -175.389,-156.633 -293.317,-156.633c-94.139,-0 -182.728,36.667 -249.459,103.249c-66.731,66.581 -103.249,155.31 -103.249,249.459c0,94.159 36.667,182.739 103.249,249.47c66.571,66.591 155.161,103.229 249.459,103.229c117.331,-0 226.746,-58.198 292.581,-155.579l190.804,128.887c-108.678,160.909 -289.358,256.958 -483.385,256.958c-78.605,-0.001 -155.002,-15.395 -226.874,-45.907Z" style="fill:#bdccda;fill-rule:nonzero;"/></g><g id="path248329"><path d="M2237.53,1406.03l-278.201,0l-272.333,-392.607l0,-223.354l43.997,-0c69.356,-0 121.269,-15.256 154.127,-45.469c28.164,-25.956 42.385,-63.359 42.385,-111.463c0,-50.152 -14.659,-88.281 -43.559,-113.213c-29.616,-25.668 -76.556,-39.303 -135.371,-39.303l-173.042,0l0,925.409l-230.256,0l0,-1143.93l420.901,-0c64.384,-0 122.463,9.238 172.903,27.418c49.725,18.04 92.25,45.031 126.421,80.077c63.21,64.97 96.645,157.07 96.645,266.475c-0,98.117 -27.13,179.218 -80.654,241.106c-37.254,42.972 -86.382,75.82 -146.648,97.968l302.685,430.885Z" style="fill:#bdccdb;fill-rule:nonzero;"/></g><g id="path248331"><path d="M2803.52,262.101l-198.422,-0l-433.371,1143.93l243.741,0l288.483,-792.981l290.97,792.981l243.731,0l-435.132,-1143.93Z" style="fill:#bdccdb;fill-rule:nonzero;"/><path d="M2705.97,1406.03l-182.076,-281.877l362.597,0l-180.521,281.877Z" style="fill:#4f9bea;fill-rule:nonzero;"/></g><g id="path248333"><path d="M3278.57,1406.03l230.246,0l-0,-442.909l522.1,0l0,-218.52l-752.346,-0l-0,661.429Zm-0,-1143.93l-0,218.52l752.346,0l0,-218.52l-752.346,-0Z" style="fill:#bdccdb;fill-rule:nonzero;"/></g></g></g></g></svg>